<?xml version="1.0" encoding="UTF-8"?><svg id="Capa_2" xmlns="http://www.w3.org/2000/svg" viewBox="0 0 207.78 31.08"><defs><style>.cls-1{fill:#ffb300;}.cls-2{fill:#e2e2e2;}</style></defs><g id="Capa_1-2"><polygon class="cls-1" points="16.34 0 21.39 10.23 32.68 11.87 24.51 19.83 26.44 31.08 16.34 25.77 6.24 31.08 8.17 19.83 0 11.87 11.29 10.23 16.34 0"/><polygon class="cls-1" points="60.12 0 65.16 10.23 76.45 11.87 68.28 19.83 70.21 31.08 60.12 25.77 50.02 31.08 51.95 19.83 43.78 11.87 55.07 10.23 60.12 0"/><polygon class="cls-1" points="103.89 0 108.94 10.23 120.23 11.87 112.06 19.83 113.99 31.08 103.89 25.77 93.79 31.08 95.72 19.83 87.55 11.87 98.84 10.23 103.89 0"/><polygon class="cls-1" points="147.67 0 152.72 10.23 164.01 11.87 155.84 19.83 157.77 31.08 147.67 25.77 137.57 31.08 139.5 19.83 131.33 11.87 142.62 10.23 147.67 0"/><polygon class="cls-1" points="186.4 10.23 175.11 11.87 183.28 19.83 181.35 31.08 191.45 25.77 191.45 0 186.4 10.23"/><polygon class="cls-2" points="207.78 11.87 196.49 10.23 191.45 0 191.45 25.77 201.54 31.08 199.61 19.83 207.78 11.87"/></g></svg>