<?xml version="1.0" encoding="UTF-8"?><svg id="Capa_2" xmlns="http://www.w3.org/2000/svg" viewBox="0 0 107.98 78.56"><defs><style>.cls-1{stroke-linecap:round;}.cls-1,.cls-2{stroke:#ff2791;}.cls-1,.cls-2,.cls-3{fill:none;stroke-miterlimit:10;stroke-width:3.06px;}.cls-3{stroke:#f52e8a;}</style></defs><g id="Capa_1-2"><path class="cls-3" d="m86.82,44.17c0,1.86-.17,3.68-.5,5.44-.74,3.95-2.27,7.62-4.41,10.85-.41.62-.85,1.22-1.3,1.81-.74.95-1.55,1.86-2.4,2.71-2.21,2.21-4.78,4.07-7.6,5.49-3.97,2-8.46,3.12-13.2,3.12-7.33,0-14.03-2.68-19.18-7.11l33.13-48.22c2.53,1.36,4.84,3.09,6.86,5.11,5.32,5.33,8.62,12.68,8.62,20.81Z"/><path class="cls-3" d="m106.45,60.46v16.57h-35.85v-6.56c2.82-1.42,5.39-3.28,7.6-5.49.85-.85,1.66-1.76,2.4-2.71.46-.58.89-1.19,1.3-1.81,2.15-3.22,3.68-6.89,4.41-10.85.33-1.76.5-3.58.5-5.44,0-8.13-3.29-15.48-8.62-20.81-2.02-2.02-4.32-3.74-6.86-5.11l-33.13,48.22-3.75,5.46-3.49,5.08H1.53v-16.57c0-7.17,5.81-12.99,12.99-12.99.12,0,.24,0,.36,0-.08-1.09-.13-2.19-.13-3.3,0-11.78,4.77-22.44,12.49-30.15S45.62,1.53,57.4,1.53c5.81,0,11.34,1.16,16.38,3.26v7.26c.45.23.9.47,1.34.72,10.95,6.18,18.34,17.93,18.34,31.4,0,1.11-.05,2.21-.15,3.3.05,0,.1,0,.15,0,2.28,0,4.43.59,6.3,1.63,3.99,2.21,6.69,6.47,6.69,11.36Z"/><path class="cls-2" d="m67.44,44.11v3.52s0,.07,0,.1c.05,1.65,1.41,2.98,3.08,2.98s3.02-1.32,3.08-2.98c0-.03,0-.07,0-.1v-9.67l-6.16,6.16Z"/><path class="cls-1" d="m60.41,61.04v3.08s0,.1,0,.15c-.08,1.63-1.43,2.93-3.08,2.93s-3-1.3-3.08-2.93c0-.05,0-.1,0-.15v-3.08"/><line class="cls-1" x1="76.89" y1="34.66" x2="64.14" y2="47.41"/></g></svg>