<?xml version="1.0" encoding="UTF-8"?><svg id="Capa_2" xmlns="http://www.w3.org/2000/svg" viewBox="0 0 1338.48 436.71"><defs><style>.cls-1,.cls-2,.cls-3{stroke-miterlimit:10;}.cls-1,.cls-2,.cls-3,.cls-4{fill:none;stroke-width:17px;}.cls-1,.cls-4{stroke:#f52e8a;}.cls-2,.cls-3{stroke:#3fc;}.cls-3,.cls-4{stroke-linecap:round;}.cls-4{stroke-linejoin:round;}</style></defs><g id="Capa_1-2"><path class="cls-4" d="m1011.53,190.11V8.5l-91.66,181.61V8.5l-91.66,181.61m229.16,0l91.66-181.61v181.61h156.11m-614.42,0L782.38,8.5v181.61M599.05,8.5c49.22,0,89.12,40.66,89.12,90.81s-39.9,90.8-89.12,90.8V8.5Z"/><path class="cls-4" d="m721.4,247.39h106.86s45.61,90.41,45.61,90.41v90.41-90.41l45.61-90.41m182.44,180.82v-180.82h45.61c25.19,0,45.61,20.24,45.61,45.2s-20.42,45.2-45.61,45.2l45.61,90.41m136.83,0v-180.82l-91.22,180.82m-182.44-180.82v180.82l-91.22-180.82v180.82"/><path class="cls-1" d="m482.39,245.54c0,10.33-.96,20.43-2.79,30.23-4.1,21.95-12.59,42.35-24.52,60.26-2.29,3.44-4.7,6.78-7.24,10.03-4.13,5.3-8.59,10.33-13.33,15.08-12.3,12.29-26.54,22.64-42.23,30.53-22.06,11.1-46.98,17.35-73.37,17.35-40.73,0-77.96-14.89-106.59-39.52L396.42,101.57c14.06,7.58,26.88,17.17,38.09,28.37,29.58,29.59,47.88,70.45,47.88,115.6Z"/><path class="cls-1" d="m591.47,336.03v92.07h-199.19v-36.43c15.69-7.89,29.93-18.24,42.23-30.53,4.74-4.75,9.2-9.78,13.33-15.08,2.54-3.25,4.95-6.59,7.24-10.03,11.93-17.91,20.42-38.31,24.52-60.26,1.83-9.8,2.79-19.9,2.79-30.23,0-45.15-18.3-86.01-47.88-115.6-11.21-11.2-24.03-20.79-38.09-28.37l-184.1,267.93-20.85,30.36-19.41,28.24H8.5v-92.07c0-39.86,32.31-72.17,72.16-72.17.68,0,1.35.01,2.02.03-.46-6.06-.7-12.18-.7-18.35,0-65.43,26.52-124.66,69.4-167.54C194.25,35.13,253.48,8.61,318.91,8.61c32.26,0,63.01,6.45,91.04,18.12v40.34c2.51,1.28,4.99,2.62,7.43,4,60.84,34.35,101.92,99.61,101.92,174.47,0,6.18-.28,12.3-.83,18.33.27-.01.55-.01.83-.01,12.69,0,24.62,3.28,34.98,9.04,22.18,12.3,37.19,35.96,37.19,63.13Z"/><path class="cls-2" d="m374.71,245.22v19.54c0,.19,0,.37.01.56.3,9.19,7.84,16.55,17.1,16.55s16.8-7.36,17.1-16.55c0-.19,0-.37,0-.56v-53.76l-34.22,34.22Z"/><path class="cls-3" d="m335.64,339.26v17.11c0,.27-.01.55-.02.82-.43,9.07-7.93,16.29-17.1,16.29s-16.66-7.22-17.09-16.29c0-.27-.02-.55-.02-.82v-17.11"/><line class="cls-3" x1="427.25" y1="192.67" x2="356.38" y2="263.54"/></g></svg>