<?xml version="1.0" encoding="UTF-8"?><svg id="Capa_2" xmlns="http://www.w3.org/2000/svg" viewBox="0 0 510.43 371"><defs><style>.cls-1,.cls-2,.cls-3{fill:none;stroke-miterlimit:10;stroke-width:13.21px;}.cls-1,.cls-3{stroke:#f52e8a;}.cls-2{stroke:#1c2146;}.cls-3{stroke-linecap:round;}</style></defs><g id="Capa_1-2"><path class="cls-2" d="m410.79,208.68c0,8.81-.82,17.42-2.38,25.78-3.5,18.72-10.74,36.12-20.91,51.4-1.95,2.93-4.01,5.78-6.18,8.55-3.52,4.52-7.33,8.81-11.37,12.86-10.49,10.48-22.64,19.31-36.02,26.04-18.82,9.47-40.07,14.8-62.58,14.8-34.74,0-66.49-12.7-90.91-33.71l157.02-228.52c11.99,6.46,22.93,14.64,32.49,24.2,25.23,25.24,40.84,60.09,40.84,98.6Z"/><path class="cls-2" d="m503.82,285.86v78.53h-169.89v-31.07c13.38-6.73,25.53-15.56,36.02-26.04,4.04-4.05,7.85-8.34,11.37-12.86,2.17-2.77,4.22-5.62,6.18-8.55,10.18-15.28,17.42-32.67,20.91-51.4,1.56-8.36,2.38-16.97,2.38-25.78,0-38.51-15.61-73.36-40.84-98.6-9.56-9.55-20.5-17.73-32.49-24.2l-157.02,228.52-17.78,25.89-16.55,24.09H6.61v-78.53c0-34,27.56-61.55,61.55-61.55.58,0,1.15,0,1.72.03-.39-5.17-.6-10.39-.6-15.65,0-55.81,22.62-106.32,59.19-142.9C165.03,29.22,215.55,6.61,271.36,6.61c27.51,0,53.74,5.5,77.65,15.45v34.41c2.14,1.09,4.26,2.23,6.34,3.41,51.89,29.3,86.93,84.96,86.93,148.81,0,5.27-.24,10.49-.71,15.63.23,0,.47,0,.71,0,10.82,0,21,2.8,29.83,7.71,18.92,10.49,31.72,30.67,31.72,53.84Z"/><path class="cls-1" d="m318.95,208.41v16.66c0,.16,0,.32,0,.48.26,7.84,6.69,14.12,14.58,14.12s14.33-6.28,14.58-14.12c0-.16,0-.32,0-.48v-45.85l-29.19,29.19Z"/><path class="cls-3" d="m285.62,288.62v14.59c0,.23,0,.47-.02.7-.37,7.74-6.76,13.89-14.58,13.89s-14.21-6.16-14.58-13.89c0-.23-.02-.47-.02-.7v-14.59"/><line class="cls-3" x1="363.76" y1="163.59" x2="303.32" y2="224.04"/></g></svg>